<svg xmlns="http://www.w3.org/2000/svg" width="1160" height="460" viewBox="0 0 1160 460">
<rect width="1160" height="460" fill="#ffffff"/>
<text x="34" y="26" font-family="Helvetica" font-size="22" font-weight="700">Vec3 vs Binary on the Canonical Failure Benchmark</text>
<text x="34" y="50" font-family="Helvetica" font-size="12" fill="#444">Torch-backed adversarial calibration suite over CIFAR-100 + ResNet-18</text>
<line x1="34" y1="68" x2="1124" y2="68" stroke="#d1d5db"/>
<text x="42" y="92" font-family="Helvetica" font-size="12" font-weight="700">Case</text>
<text x="282" y="92" font-family="Helvetica" font-size="12" font-weight="700">Metric</text>
<text x="392" y="92" font-family="Helvetica" font-size="12" font-weight="700">Binary</text>
<text x="532" y="92" font-family="Helvetica" font-size="12" font-weight="700">Vec3</text>
<text x="672" y="92" font-family="Helvetica" font-size="12" font-weight="700">Key Signals</text>
<text x="950" y="92" font-family="Helvetica" font-size="12" font-weight="700">Interpretation</text>
<rect x="34" y="86" width="1090" height="64" fill=#f8fafc stroke="#e5e7eb"/>
<text x="42" y="104" font-family="Helvetica" font-size="13" font-weight="700">Pyrrhic Probe</text>
<text x="42" y="122" font-family="Helvetica" font-size="11" fill="#555">pyrrhic_probe</text>
<text x="282" y="104" font-family="Helvetica" font-size="13">0.4519</text>
<rect x="392" y="90" rx="8" ry="8" width="72" height="24" fill="#2563eb" /><text x="402" y="106" font-family="Helvetica" font-size="12" font-weight="700" fill="#ffffff">ADOPT</text>
<rect x="532" y="90" rx="8" ry="8" width="72" height="24" fill="#f59e0b" /><text x="542" y="106" font-family="Helvetica" font-size="12" font-weight="700" fill="#ffffff">HOLD</text>
<text x="672" y="104" font-family="Helvetica" font-size="12">instability_gap, loss_instability</text>
<text x="950" y="104" font-family="Helvetica" font-size="12">Binary false positive; Vec3 hold</text>
<rect x="34" y="172" width="1090" height="64" fill=#ffffff stroke="#e5e7eb"/>
<text x="42" y="190" font-family="Helvetica" font-size="13" font-weight="700">Goodhart Probe</text>
<text x="42" y="208" font-family="Helvetica" font-size="11" fill="#555">metric_gaming_probe</text>
<text x="282" y="190" font-family="Helvetica" font-size="13">0.4569</text>
<rect x="392" y="176" rx="8" ry="8" width="72" height="24" fill="#2563eb" /><text x="402" y="192" font-family="Helvetica" font-size="12" font-weight="700" fill="#ffffff">ADOPT</text>
<rect x="532" y="176" rx="8" ry="8" width="72" height="24" fill="#059669" /><text x="542" y="192" font-family="Helvetica" font-size="12" font-weight="700" fill="#ffffff">REFRAME</text>
<text x="672" y="190" font-family="Helvetica" font-size="12">hyper_coherence, proxy_decoupling</text>
<text x="950" y="190" font-family="Helvetica" font-size="12">Binary false positive; Vec3 reframe</text>
<rect x="34" y="258" width="1090" height="64" fill=#f8fafc stroke="#e5e7eb"/>
<text x="42" y="276" font-family="Helvetica" font-size="13" font-weight="700">Broken Probe</text>
<text x="42" y="294" font-family="Helvetica" font-size="11" fill="#555">broken_probe</text>
<text x="282" y="276" font-family="Helvetica" font-size="13">0.3919</text>
<rect x="392" y="262" rx="8" ry="8" width="72" height="24" fill="#dc2626" /><text x="402" y="278" font-family="Helvetica" font-size="12" font-weight="700" fill="#ffffff">REJECT</text>
<rect x="532" y="262" rx="8" ry="8" width="80" height="24" fill="#7c3aed" /><text x="542" y="278" font-family="Helvetica" font-size="12" font-weight="700" fill="#ffffff">ROLLBACK</text>
<text x="672" y="276" font-family="Helvetica" font-size="12">exploding_gradients, loss_instability</text>
<text x="950" y="276" font-family="Helvetica" font-size="12">Binary reject; Vec3 rollback</text>
<rect x="34" y="344" width="1090" height="64" fill=#ffffff stroke="#e5e7eb"/>
<text x="42" y="362" font-family="Helvetica" font-size="13" font-weight="700">Eval Regime Shift</text>
<text x="42" y="380" font-family="Helvetica" font-size="11" fill="#555">eval_tta</text>
<text x="282" y="362" font-family="Helvetica" font-size="13">0.4272</text>
<rect x="392" y="348" rx="8" ry="8" width="72" height="24" fill="#2563eb" /><text x="402" y="364" font-family="Helvetica" font-size="12" font-weight="700" fill="#ffffff">ADOPT</text>
<rect x="532" y="348" rx="8" ry="8" width="72" height="24" fill="#059669" /><text x="542" y="364" font-family="Helvetica" font-size="12" font-weight="700" fill="#ffffff">REFRAME</text>
<text x="672" y="362" font-family="Helvetica" font-size="12">eval_regime_changed</text>
<text x="950" y="362" font-family="Helvetica" font-size="12">Binary false positive; Vec3 reframe</text>
<line x1="34" y1="426" x2="1124" y2="426" stroke="#d1d5db"/>
<text x="34" y="446" font-family="Helvetica" font-size="12" fill="#444">Headline: binary would adopt 3/4 cases; Vec3 would adopt 0/4 and routes them to hold, reject, rollback, or reframe.</text>
</svg>